# xmcd
#
# Track frame offsets: 
#        150
#        34534
#        66987
#        102085
#        121465
#        156210
#        175748
#        216900
#        234164
#        289680
#
# Disc length: 4484 seconds
#
# Revision: 21
# Processed by: cddbd v1.5.2PL0 Copyright (c) Steve Scherf et al.
# Submitted via: ExactAudioCopy v1.3
#
DISCID=8411820a
DTITLE=Wynton Marsalis and Eric Clapton - Play the Blues - Live Jazz at 
DTITLE=Lincoln Center
DYEAR=2011
DGENRE=Jazz
TTITLE0=Ice cream
TTITLE1=Forty-four
TTITLE2=Joe Turner's Blues
TTITLE3=The last time
TTITLE4=Careless love
TTITLE5=Kidman Blues
TTITLE6=Layla
TTITLE7=Joliet bound
TTITLE8=Just a closer walk with thee (featuring Taj Mahal)
TTITLE9=Corrine, Corrina (featuring Taj Mahal)
EXTD=YEAR: 2011
EXTT0=
EXTT1=
EXTT2=
EXTT3=
EXTT4=
EXTT5=
EXTT6=
EXTT7=
EXTT8=
EXTT9=
PLAYORDER=
